<svg id="Layer_1" data-name="Layer 1" xmlns="http://www.w3.org/2000/svg" viewBox="0 0 47.44 47.62"><defs><style>.cls-1,.cls-3{fill:none;}.cls-1,.cls-2,.cls-3{stroke:#000;stroke-miterlimit:10;}.cls-1{stroke-width:0.35px;}.cls-2{stroke-width:0.21px;}</style></defs><circle class="cls-1" cx="23.65" cy="23.65" r="23.47"/><ellipse class="cls-1" cx="23.65" cy="23.68" rx="23.47" ry="21.27"/><ellipse class="cls-1" cx="23.65" cy="23.6" rx="23.47" ry="19.02"/><ellipse class="cls-1" cx="23.65" cy="23.48" rx="23.47" ry="16.77"/><ellipse class="cls-1" cx="23.65" cy="23.52" rx="23.47" ry="14.81"/><ellipse class="cls-1" cx="23.65" cy="23.58" rx="23.47" ry="13.02"/><ellipse class="cls-1" cx="23.65" cy="23.66" rx="23.47" ry="11.7"/><ellipse class="cls-1" cx="23.65" cy="23.52" rx="23.47" ry="10.62"/><ellipse class="cls-1" cx="23.65" cy="23.51" rx="23.47" ry="9.55"/><ellipse class="cls-1" cx="23.65" cy="23.48" rx="23.47" ry="8.53"/><ellipse class="cls-1" cx="23.65" cy="23.59" rx="23.47" ry="7.59"/><ellipse class="cls-1" cx="23.65" cy="23.49" rx="23.47" ry="6.67"/><ellipse class="cls-1" cx="23.65" cy="23.56" rx="23.47" ry="5.86"/><ellipse class="cls-1" cx="23.65" cy="23.53" rx="23.47" ry="5.06"/><ellipse class="cls-1" cx="23.65" cy="23.56" rx="23.47" ry="4.28"/><ellipse class="cls-1" cx="23.65" cy="23.58" rx="23.47" ry="3.52"/><ellipse class="cls-1" cx="23.65" cy="23.58" rx="23.47" ry="2.82"/><ellipse class="cls-1" cx="23.65" cy="23.59" rx="23.47" ry="2.1"/><ellipse class="cls-2" cx="23.65" cy="23.65" rx="6.99" ry="2.46"/><circle class="cls-3" cx="23.78" cy="23.96" r="23.16"/></svg>