<svg id="Layer_1" data-name="Layer 1" xmlns="http://www.w3.org/2000/svg" viewBox="0 0 47.32 47.44"><defs><style>.cls-1,.cls-3{fill:none;}.cls-1,.cls-2,.cls-3{stroke:#000;stroke-miterlimit:10;}.cls-1{stroke-width:0.35px;}.cls-2{stroke-width:0.3px;}</style></defs><circle class="cls-1" cx="23.66" cy="23.56" r="23.38"/><ellipse class="cls-1" cx="23.66" cy="23.53" rx="23.38" ry="21.19"/><ellipse class="cls-1" cx="23.66" cy="23.6" rx="23.38" ry="18.95"/><ellipse class="cls-1" cx="23.66" cy="23.72" rx="23.38" ry="16.7"/><ellipse class="cls-1" cx="23.66" cy="23.68" rx="23.38" ry="14.76"/><ellipse class="cls-1" cx="23.66" cy="23.63" rx="23.38" ry="12.97"/><ellipse class="cls-1" cx="23.66" cy="23.55" rx="23.38" ry="11.65"/><ellipse class="cls-1" cx="23.66" cy="23.69" rx="23.38" ry="10.58"/><ellipse class="cls-1" cx="23.66" cy="23.69" rx="23.38" ry="9.51"/><ellipse class="cls-1" cx="23.66" cy="23.73" rx="23.38" ry="8.5"/><ellipse class="cls-1" cx="23.66" cy="23.62" rx="23.38" ry="7.56"/><ellipse class="cls-1" cx="23.66" cy="23.72" rx="23.38" ry="6.64"/><ellipse class="cls-1" cx="23.66" cy="23.64" rx="23.38" ry="5.83"/><ellipse class="cls-1" cx="23.66" cy="23.68" rx="23.38" ry="5.04"/><ellipse class="cls-2" cx="23.66" cy="23.56" rx="6.96" ry="5.21"/><circle class="cls-3" cx="23.66" cy="23.78" r="23.16"/></svg>